<svg width="520" height="180" viewBox="0 0 520 180" fill="none" xmlns="http://www.w3.org/2000/svg">
  <defs>
    <linearGradient id="lockupOrb" x1="18" y1="12" x2="142" y2="150" gradientUnits="userSpaceOnUse">
      <stop stop-color="#FF6C9A"/>
      <stop offset="0.52" stop-color="#FF5F87"/>
      <stop offset="1" stop-color="#9F4DFF"/>
    </linearGradient>
    <linearGradient id="lockupGlow" x1="34" y1="18" x2="126" y2="124" gradientUnits="userSpaceOnUse">
      <stop stop-color="white" stop-opacity="0.34"/>
      <stop offset="1" stop-color="white" stop-opacity="0"/>
    </linearGradient>
  </defs>
  <circle cx="80" cy="90" r="64" fill="url(#lockupOrb)"/>
  <circle cx="80" cy="90" r="64" fill="url(#lockupGlow)"/>
  <path d="M57 55H88.49C103.457 55 113 62.4258 113 74.2538C113 82.5038 108.202 88.2399 99.6293 90.8891C109.839 92.9764 115 99.4337 115 108.602C115 122.377 104.206 130 87.0407 130H57V55ZM84.3591 86.0437C90.7685 86.0437 94.7507 83.4581 94.7507 78.1182C94.7507 72.8167 90.7685 70.1932 84.3591 70.1932H73.4488V86.0437H84.3591ZM86.3385 114.807C93.2876 114.807 97.5343 111.951 97.5343 105.92C97.5343 99.9274 93.2876 97.0721 86.3385 97.0721H73.4488V114.807H86.3385Z" fill="white"/>
  <path d="M95.5 55.5L98.6471 63.3529L106.5 66.5L98.6471 69.6471L95.5 77.5L92.3529 69.6471L84.5 66.5L92.3529 63.3529L95.5 55.5Z" fill="#FFE5F1"/>
  <text x="174" y="84" fill="#171125" font-family="Syne, Arial, sans-serif" font-size="48" font-weight="700" letter-spacing="-0.05em">Booth Fairy</text>
  <text x="176" y="117" fill="#6E647D" font-family="Manrope, Arial, sans-serif" font-size="28" font-weight="600" letter-spacing="-0.02em">Miami</text>
</svg>
