<svg width="160" height="160" viewBox="0 0 160 160" fill="none" xmlns="http://www.w3.org/2000/svg">
  <defs>
    <linearGradient id="boothFairyOrb" x1="24" y1="18" x2="136" y2="142" gradientUnits="userSpaceOnUse">
      <stop stop-color="#FF6C9A"/>
      <stop offset="0.52" stop-color="#FF5F87"/>
      <stop offset="1" stop-color="#9F4DFF"/>
    </linearGradient>
    <linearGradient id="boothFairyGlow" x1="40" y1="26" x2="126" y2="128" gradientUnits="userSpaceOnUse">
      <stop stop-color="white" stop-opacity="0.34"/>
      <stop offset="1" stop-color="white" stop-opacity="0"/>
    </linearGradient>
  </defs>
  <circle cx="80" cy="80" r="64" fill="url(#boothFairyOrb)"/>
  <circle cx="80" cy="80" r="64" fill="url(#boothFairyGlow)"/>
  <path d="M57 45H88.49C103.457 45 113 52.4258 113 64.2538C113 72.5038 108.202 78.2399 99.6293 80.8891C109.839 82.9764 115 89.4337 115 98.6022C115 112.377 104.206 120 87.0407 120H57V45ZM84.3591 76.0437C90.7685 76.0437 94.7507 73.4581 94.7507 68.1182C94.7507 62.8167 90.7685 60.1932 84.3591 60.1932H73.4488V76.0437H84.3591ZM86.3385 104.807C93.2876 104.807 97.5343 101.951 97.5343 95.9199C97.5343 89.9274 93.2876 87.0721 86.3385 87.0721H73.4488V104.807H86.3385Z" fill="white"/>
  <path d="M95.5 45.5L98.6471 53.3529L106.5 56.5L98.6471 59.6471L95.5 67.5L92.3529 59.6471L84.5 56.5L92.3529 53.3529L95.5 45.5Z" fill="#FFE5F1"/>
</svg>
