<svg width="1200" height="630" viewBox="0 0 1200 630" fill="none" xmlns="http://www.w3.org/2000/svg">
  <defs>
    <linearGradient id="bg" x1="96" y1="44" x2="1068" y2="592" gradientUnits="userSpaceOnUse">
      <stop stop-color="#FFF1EE"/>
      <stop offset="0.55" stop-color="#FFF9F8"/>
      <stop offset="1" stop-color="#F8F1FF"/>
    </linearGradient>
    <linearGradient id="orb" x1="135" y1="92" x2="359" y2="340" gradientUnits="userSpaceOnUse">
      <stop stop-color="#FF6C9A"/>
      <stop offset="0.52" stop-color="#FF5F87"/>
      <stop offset="1" stop-color="#9F4DFF"/>
    </linearGradient>
  </defs>
  <rect width="1200" height="630" rx="0" fill="url(#bg)"/>
  <circle cx="248" cy="190" r="112" fill="url(#orb)"/>
  <circle cx="248" cy="190" r="112" fill="white" fill-opacity="0.08"/>
  <path d="M205 132H260.983C287.592 132 304.55 145.202 304.55 166.229C304.55 180.896 296.018 191.093 280.772 195.802C298.922 199.511 308.1 210.993 308.1 227.292C308.1 251.782 288.899 265.333 258.383 265.333H205V132ZM253.64 187.189C265.033 187.189 272.112 182.593 272.112 173.104C272.112 163.684 265.033 159.02 253.64 159.02H234.242V187.189H253.64ZM257.158 238.346C269.512 238.346 277.061 233.267 277.061 222.544C277.061 211.889 269.512 206.811 257.158 206.811H234.242V238.346H257.158Z" fill="white"/>
  <path d="M274 127L280.099 142.224L295.324 148.324L280.099 154.423L274 169.648L267.901 154.423L252.676 148.324L267.901 142.224L274 127Z" fill="#FFE5F1"/>
  <text x="392" y="198" fill="#171125" font-family="Syne, Arial, sans-serif" font-size="86" font-weight="700" letter-spacing="-0.06em">Booth Fairy</text>
  <text x="398" y="256" fill="#6E647D" font-family="Manrope, Arial, sans-serif" font-size="42" font-weight="700" letter-spacing="-0.02em">Miami</text>
  <text x="392" y="360" fill="#171125" font-family="Syne, Arial, sans-serif" font-size="72" font-weight="700" letter-spacing="-0.06em">Luxury DSLR-style</text>
  <text x="392" y="434" fill="#171125" font-family="Syne, Arial, sans-serif" font-size="72" font-weight="700" letter-spacing="-0.06em">photo booth experiences</text>
  <text x="392" y="508" fill="#6E647D" font-family="Manrope, Arial, sans-serif" font-size="34" font-weight="600">Weddings, birthdays, luxury parties, and corporate events across Miami.</text>
</svg>
